<svg xmlns="http://www.w3.org/2000/svg" version="1.1" xmlns:xlink="http://www.w3.org/1999/xlink" xmlns:svgjs="http://svgjs.dev/svgjs" width="1000" height="1000" viewBox="0 0 1000 1000"><rect width="1000" height="1000" fill="#000000"></rect><g transform="matrix(0.7,0,0,0.7,149.57575757575756,282.1265587044535)"><svg viewBox="0 0 396 247" data-background-color="#ffffff" preserveAspectRatio="xMidYMid meet" height="623" width="1000" xmlns="http://www.w3.org/2000/svg" xmlns:xlink="http://www.w3.org/1999/xlink"><g id="tight-bounds" transform="matrix(1,0,0,1,0.2400000000000091,-0.09999999999999432)"><svg viewBox="0 0 395.52 247.2" height="247.2" width="395.52"><g><svg></svg></g><g><svg viewBox="0 0 395.52 247.2" height="247.2" width="395.52"><g transform="matrix(1,0,0,1,75.54432,90.7713960942761)"><svg viewBox="0 0 244.43135999999998 65.6572078114478" height="65.6572078114478" width="244.43135999999998"><g><svg viewBox="0 0 244.43135999999998 65.6572078114478" height="65.6572078114478" width="244.43135999999998"><g><svg viewBox="0 0 244.43135999999998 65.6572078114478" height="65.6572078114478" width="244.43135999999998"><g><svg viewBox="0 0 244.43135999999998 65.6572078114478" height="65.6572078114478" width="244.43135999999998"><g id="textblocktransform"><svg viewBox="0 0 244.43135999999998 65.6572078114478" height="65.6572078114478" width="244.43135999999998" id="textblock"><g><svg viewBox="0 0 244.43135999999998 65.6572078114478" height="65.6572078114478" width="244.43135999999998"><g transform="matrix(1,0,0,1,0,0)"><svg width="244.43135999999998" viewBox="3 -35.400001525878906 133.63999938964844 35.900001525878906" height="65.6572078114478" data-palette-color="#010c80"><path d="M13 0L4 0 4-27.3 3-32.4 4-35.4 28.75-35.4 31.25-33.9 27.95-26.9 23.45-27.4 12.5-27.4 13-21.9 26.45-21.9 26.45-14.15 20.4-14.15 13-14.65 13-7.95 13.55-2.95 13 0ZM43.1 0.5L43.1 0.5Q37 0.5 33.65-2.4 30.3-5.3 30.3-11.8L30.3-11.8Q30.3-18.35 33.65-21.23 37-24.1 43.1-24.1L43.1-24.1Q49.35-24.1 52.57-21.23 55.8-18.35 55.8-11.8L55.8-11.8Q55.8-5.3 52.57-2.4 49.35 0.5 43.1 0.5ZM43.1-6L43.1-6Q45.15-6 45.95-7.53 46.75-9.05 46.75-11.8L46.75-11.8Q46.75-14.6 45.95-16.1 45.15-17.6 43.1-17.6L43.1-17.6Q41-17.6 40.17-16.1 39.35-14.6 39.35-11.8L39.35-11.8Q39.35-9.05 40.17-7.53 41-6 43.1-6ZM70.55 0.5L70.55 0.5Q67.09 0.5 64.32-0.65 61.55-1.8 59.92-4.5 58.3-7.2 58.3-11.8L58.3-11.8Q58.3-16.45 60.05-19.13 61.8-21.8 64.59-22.95 67.4-24.1 70.55-24.1L70.55-24.1Q73.3-24.1 75.27-23.9 77.25-23.7 77.9-23.55L77.9-23.55 81.8-19.15 77.8-13.7 72.05-17.1Q67.75-17.1 67.75-11.8L67.75-11.8Q67.75-9.05 69.05-7.78 70.34-6.5 73.05-6.5L73.05-6.5Q75.75-6.5 77.9-7.25 80.05-8 81.25-8.65L81.25-8.65 81.25-1.45Q79.7-0.65 77.17-0.08 74.65 0.5 70.55 0.5ZM93.29 0.5L93.29 0.5Q90.29 0.5 88.67-0.65 87.04-1.8 86.42-3.98 85.79-6.15 85.79-9.2L85.79-9.2 85.79-23.65 94.79-23.65 94.79-10.5Q94.79-8.65 95.52-7.6 96.24-6.55 97.69-6.55L97.69-6.55Q99.04-6.55 100.17-7.7 101.29-8.85 101.29-11.05L101.29-11.05 101.29-23.65 110.29-23.65 110.29-8.05 111.34-3.05 110.29 0 101.84 0 101.84-2.45 101.34-2.7Q100.69-2.05 99.47-1.3 98.24-0.55 96.67-0.03 95.09 0.5 93.29 0.5ZM125.89 0.5L125.89 0.5Q122.24 0.5 119.44-0.25 116.64-1 115.09-1.8L115.09-1.8 115.09-8.75Q117.14-7.85 119.32-7.35 121.49-6.85 123.24-6.68 124.99-6.5 125.74-6.5L125.74-6.5Q126.59-6.5 126.94-6.78 127.29-7.05 127.29-7.45L127.29-7.45Q127.29-8 126.39-8.38 125.49-8.75 122.99-9.35L122.99-9.35Q120.94-9.85 119.02-10.63 117.09-11.4 115.87-12.8 114.64-14.2 114.64-16.55L114.64-16.55Q114.64-19.45 115.99-21.1 117.34-22.75 119.84-23.43 122.34-24.1 125.69-24.1L125.69-24.1Q127.59-24.1 129.24-23.9 130.89-23.7 131.59-23.6L131.59-23.6 136.24-20.6 133.99-15.25 125.24-17.15Q123.64-17.15 123.64-16.1L123.64-16.1Q123.64-15 125.94-14.45L125.94-14.45Q127.74-14.05 129.64-13.58 131.54-13.1 133.12-12.35 134.69-11.6 135.67-10.35 136.64-9.1 136.64-7.05L136.64-7.05Q136.64-3.25 133.92-1.38 131.19 0.5 125.89 0.5Z" opacity="1" transform="matrix(1,0,0,1,0,0)" fill="#ffffff" class="wordmark-text-0" data-fill-palette-color="primary" id="text-0"></path></svg></g></svg></g></svg></g></svg></g><g></g></svg></g></svg></g></svg></g><g><path d="M85.506 75.271A122.216 122.216 0 0 1 310.014 75.271L304.093 75.271A116.295 116.295 0 0 0 91.427 75.271L85.506 75.271M85.506 171.929A122.216 122.216 0 0 0 310.014 171.929L304.093 171.929A116.295 116.295 0 0 1 91.427 171.929L85.506 171.929" fill="#ffffff" stroke="transparent" data-fill-palette-color="tertiary"></path></g></svg></g><defs></defs></svg><rect width="395.52" height="247.2" fill="none" stroke="none" visibility="hidden"></rect></g></svg></g></svg>